<svg width="25" height="25" viewBox="0 0 25 25" fill="none" xmlns="http://www.w3.org/2000/svg">
<path d="M15.5 11.2817C15.5 11.7267 15.368 12.1618 15.1208 12.5318C14.8736 12.9018 14.5222 13.1902 14.111 13.3605C13.6999 13.5308 13.2475 13.5753 12.811 13.4885C12.3746 13.4017 11.9737 13.1874 11.659 12.8727C11.3443 12.5581 11.13 12.1571 11.0432 11.7207C10.9564 11.2842 11.001 10.8318 11.1713 10.4207C11.3416 10.0096 11.63 9.65816 12 9.41093C12.37 9.1637 12.805 9.03174 13.25 9.03174C13.8467 9.03174 14.419 9.26879 14.841 9.69075C15.2629 10.1127 15.5 10.685 15.5 11.2817ZM21.5 4.53174V21.0317C21.5 21.4296 21.342 21.8111 21.0607 22.0924C20.7794 22.3737 20.3978 22.5317 20 22.5317H6.5C6.10218 22.5317 5.72064 22.3737 5.43934 22.0924C5.15804 21.8111 5 21.4296 5 21.0317V18.7817H3.5C3.30109 18.7817 3.11032 18.7027 2.96967 18.5621C2.82902 18.4214 2.75 18.2307 2.75 18.0317C2.75 17.8328 2.82902 17.6421 2.96967 17.5014C3.11032 17.3608 3.30109 17.2817 3.5 17.2817H5V13.5317H3.5C3.30109 13.5317 3.11032 13.4527 2.96967 13.3121C2.82902 13.1714 2.75 12.9807 2.75 12.7817C2.75 12.5828 2.82902 12.3921 2.96967 12.2514C3.11032 12.1108 3.30109 12.0317 3.5 12.0317H5V8.28174H3.5C3.30109 8.28174 3.11032 8.20272 2.96967 8.06207C2.82902 7.92142 2.75 7.73065 2.75 7.53174C2.75 7.33283 2.82902 7.14206 2.96967 7.00141C3.11032 6.86076 3.30109 6.78174 3.5 6.78174H5V4.53174C5 4.13391 5.15804 3.75238 5.43934 3.47108C5.72064 3.18977 6.10218 3.03174 6.5 3.03174H20C20.3978 3.03174 20.7794 3.18977 21.0607 3.47108C21.342 3.75238 21.5 4.13391 21.5 4.53174ZM18.35 16.0817C17.6859 15.1914 16.8003 14.4903 15.7812 14.0483C16.3397 13.5384 16.731 12.8716 16.9037 12.1354C17.0764 11.3992 17.0225 10.628 16.7491 9.92295C16.4756 9.21791 15.9954 8.61202 15.3715 8.18478C14.7476 7.75754 14.009 7.52891 13.2528 7.52891C12.4966 7.52891 11.7581 7.75754 11.1341 8.18478C10.5102 8.61202 10.03 9.21791 9.75655 9.92295C9.48311 10.628 9.42922 11.3992 9.60194 12.1354C9.77466 12.8716 10.1659 13.5384 10.7244 14.0483C9.70328 14.4895 8.81566 15.1906 8.15 16.0817C8.09091 16.1605 8.04791 16.2502 8.02346 16.3456C7.99902 16.441 7.99361 16.5403 8.00754 16.6378C8.02147 16.7353 8.05446 16.8291 8.10464 16.9139C8.15482 16.9986 8.22121 17.0726 8.3 17.1317C8.37879 17.1908 8.46845 17.2338 8.56386 17.2583C8.65927 17.2827 8.75856 17.2881 8.85607 17.2742C8.95357 17.2603 9.04737 17.2273 9.13212 17.1771C9.21687 17.1269 9.29091 17.0605 9.35 16.9817C9.80409 16.3763 10.3929 15.8849 11.0698 15.5464C11.7468 15.2079 12.4932 15.0317 13.25 15.0317C14.0068 15.0317 14.7532 15.2079 15.4302 15.5464C16.1071 15.8849 16.6959 16.3763 17.15 16.9817C17.2693 17.1409 17.447 17.2461 17.6439 17.2742C17.8408 17.3023 18.0409 17.2511 18.2 17.1317C18.3591 17.0124 18.4643 16.8347 18.4925 16.6378C18.5206 16.4409 18.4693 16.2409 18.35 16.0817Z" fill="#344054"/>
</svg>
