<svg width="24" height="25" viewBox="0 0 24 25" fill="none" xmlns="http://www.w3.org/2000/svg">
<path d="M17.0691 20.4582C17.1625 20.5671 17.2227 20.7005 17.2427 20.8426C17.2626 20.9846 17.2413 21.1294 17.1814 21.2598C17.1215 21.3902 17.0255 21.5006 16.9047 21.578C16.7839 21.6555 16.6435 21.6966 16.5 21.6967H7.5C7.35653 21.6966 7.21608 21.6555 7.0953 21.578C6.97453 21.5006 6.87849 21.3902 6.81859 21.2598C6.75869 21.1294 6.73743 20.9846 6.75735 20.8426C6.77726 20.7005 6.8375 20.5671 6.93094 20.4582L11.4309 15.2082C11.5013 15.126 11.5887 15.0601 11.687 15.0149C11.7853 14.9696 11.8923 14.9462 12.0005 14.9462C12.1087 14.9462 12.2156 14.9696 12.3139 15.0149C12.4122 15.0601 12.4996 15.126 12.57 15.2082L17.0691 20.4582ZM19.5 4.44666H4.5C3.90326 4.44666 3.33097 4.68371 2.90901 5.10567C2.48705 5.52762 2.25 6.09992 2.25 6.69666V17.1967C2.25 17.7934 2.48705 18.3657 2.90901 18.7876C3.33097 19.2096 3.90326 19.4467 4.5 19.4467H5.64937C5.70291 19.4461 5.7557 19.4341 5.80422 19.4115C5.85273 19.3889 5.89583 19.3561 5.93062 19.3154L10.2881 14.2323C10.4994 13.9859 10.7614 13.7882 11.0562 13.6526C11.3511 13.517 11.6717 13.4468 11.9963 13.4468C12.3208 13.4468 12.6414 13.517 12.9363 13.6526C13.2311 13.7882 13.4931 13.9859 13.7044 14.2323L18.0656 19.3154C18.1004 19.3561 18.1435 19.3889 18.192 19.4115C18.2405 19.4341 18.2933 19.4461 18.3469 19.4467H19.5C20.0967 19.4467 20.669 19.2096 21.091 18.7876C21.5129 18.3657 21.75 17.7934 21.75 17.1967V6.69666C21.75 6.09992 21.5129 5.52762 21.091 5.10567C20.669 4.68371 20.0967 4.44666 19.5 4.44666Z" fill="#344054"/>
</svg>
