<svg width="24" height="25" viewBox="0 0 24 25" fill="none" xmlns="http://www.w3.org/2000/svg">
<path d="M22.125 8.68686C21.9846 8.52652 21.8116 8.39793 21.6176 8.30967C21.4237 8.2214 21.2131 8.17549 21 8.17499H17.5903L12.5625 2.43092C12.4921 2.35112 12.4055 2.2872 12.3086 2.24342C12.2116 2.19964 12.1064 2.177 12 2.177C11.8936 2.177 11.7884 2.19964 11.6914 2.24342C11.5944 2.2872 11.5079 2.35112 11.4375 2.43092L6.40966 8.17499H2.99998C2.78629 8.17499 2.57507 8.22065 2.38046 8.30891C2.18585 8.39717 2.01234 8.52599 1.87156 8.68674C1.73078 8.8475 1.62596 9.03648 1.56414 9.24103C1.50232 9.44558 1.48492 9.66098 1.5131 9.8728L2.81248 19.6237C2.86065 19.9841 3.03807 20.3147 3.31175 20.5541C3.58542 20.7934 3.93671 20.9252 4.30029 20.925H19.6997C20.0632 20.9252 20.4145 20.7934 20.6882 20.5541C20.9619 20.3147 21.1393 19.9841 21.1875 19.6237L22.4878 9.87374C22.5155 9.66147 22.4975 9.44573 22.4349 9.24101C22.3723 9.0363 22.2666 8.84735 22.125 8.68686ZM7.64998 17.925C7.62468 17.9264 7.59933 17.9264 7.57404 17.925C7.38746 17.9259 7.20724 17.8573 7.06856 17.7325C6.92987 17.6077 6.84269 17.4356 6.82404 17.25L6.29904 12C6.27915 11.8021 6.33869 11.6044 6.46458 11.4503C6.59046 11.2963 6.77237 11.1986 6.97029 11.1787C7.16821 11.1588 7.36592 11.2184 7.51993 11.3443C7.67395 11.4702 7.77165 11.6521 7.79154 11.85L8.31654 17.1C8.33754 17.2978 8.27912 17.4958 8.15411 17.6505C8.02911 17.8052 7.84777 17.904 7.64998 17.925ZM12.75 17.175C12.75 17.3739 12.671 17.5647 12.5303 17.7053C12.3897 17.846 12.1989 17.925 12 17.925C11.8011 17.925 11.6103 17.846 11.4696 17.7053C11.329 17.5647 11.25 17.3739 11.25 17.175V11.925C11.25 11.7261 11.329 11.5353 11.4696 11.3947C11.6103 11.254 11.8011 11.175 12 11.175C12.1989 11.175 12.3897 11.254 12.5303 11.3947C12.671 11.5353 12.75 11.7261 12.75 11.925V17.175ZM8.40279 8.17499L12 4.06405L15.5972 8.17499H8.40279ZM17.6962 12L17.1712 17.25C17.1527 17.4348 17.0661 17.6062 16.9284 17.7309C16.7908 17.8556 16.6117 17.9248 16.4259 17.925C16.4006 17.9264 16.3753 17.9264 16.35 17.925C16.252 17.9151 16.1569 17.8861 16.0701 17.8395C15.9833 17.7929 15.9066 17.7296 15.8443 17.6534C15.7819 17.5771 15.7352 17.4893 15.7068 17.395C15.6784 17.3007 15.6689 17.2017 15.6787 17.1037L16.2037 11.8537C16.2236 11.6558 16.3213 11.4739 16.4753 11.348C16.6293 11.2221 16.8271 11.1626 17.025 11.1825C17.2229 11.2024 17.4048 11.3001 17.5307 11.4541C17.6566 11.6081 17.7161 11.8058 17.6962 12.0037V12Z" fill="#344054"/>
</svg>
