<svg width="25" height="25" viewBox="0 0 25 25" fill="none" xmlns="http://www.w3.org/2000/svg">
<path d="M22.2172 18.3249L19.1056 3.53119C19.0654 3.33772 18.9873 3.15412 18.8759 2.99092C18.7645 2.82773 18.6219 2.68815 18.4564 2.58021C18.2909 2.47228 18.1057 2.39811 17.9114 2.36197C17.7171 2.32583 17.5176 2.32843 17.3244 2.36962L12.9359 3.31275C12.5478 3.39774 12.2089 3.63256 11.9929 3.96613C11.777 4.2997 11.7015 4.70505 11.7828 5.094L14.8944 19.8877C14.9637 20.2253 15.1471 20.5286 15.4138 20.7468C15.6805 20.965 16.0142 21.0847 16.3588 21.0859C16.4653 21.0857 16.5715 21.0744 16.6756 21.0521L21.0641 20.109C21.4527 20.0238 21.792 19.7885 22.0079 19.4544C22.2239 19.1202 22.2991 18.7143 22.2172 18.3249ZM13.25 4.78744C13.25 4.78181 13.25 4.779 13.25 4.779L17.6375 3.8415L17.9497 5.32931L13.5622 6.27337L13.25 4.78744ZM14.1875 9.22931L13.8734 7.73869L18.2628 6.79556L18.5759 8.28619L14.1875 9.22931ZM20.75 18.6427L16.3625 19.5802L16.0503 18.0924L20.4378 17.1484L20.75 18.6343C20.75 18.6399 20.75 18.6427 20.75 18.6427ZM10.25 3.08587H5.75C5.35218 3.08587 4.97064 3.24391 4.68934 3.52521C4.40804 3.80652 4.25 4.18805 4.25 4.58587V19.5859C4.25 19.9837 4.40804 20.3652 4.68934 20.6465C4.97064 20.9278 5.35218 21.0859 5.75 21.0859H10.25C10.6478 21.0859 11.0294 20.9278 11.3107 20.6465C11.592 20.3652 11.75 19.9837 11.75 19.5859V4.58587C11.75 4.18805 11.592 3.80652 11.3107 3.52521C11.0294 3.24391 10.6478 3.08587 10.25 3.08587ZM5.75 4.58587H10.25V6.08587H5.75V4.58587ZM10.25 19.5859H5.75V18.0859H10.25V19.5859Z" fill="#344054"/>
</svg>
