<svg width="24" height="25" viewBox="0 0 24 25" fill="none" xmlns="http://www.w3.org/2000/svg">
<path d="M12.0002 2.94666C10.3169 2.94629 8.66213 3.38174 7.19704 4.21062C5.73194 5.0395 4.50641 6.23358 3.63971 7.67662C2.77302 9.11967 2.29469 10.7625 2.25129 12.4453C2.20789 14.128 2.60089 15.7934 3.39205 17.2792L2.32799 20.4713C2.23985 20.7356 2.22706 21.0193 2.29105 21.2904C2.35504 21.5616 2.49328 21.8095 2.69029 22.0065C2.88729 22.2035 3.13526 22.3418 3.40642 22.4058C3.67757 22.4698 3.96119 22.457 4.22549 22.3688L7.41768 21.3048C8.72527 22.0003 10.1741 22.3887 11.6543 22.4407C13.1344 22.4926 14.6069 22.2066 15.9601 21.6045C17.3132 21.0024 18.5114 20.0999 19.4636 18.9656C20.4159 17.8313 21.0972 16.4949 21.4559 15.058C21.8146 13.621 21.8412 12.1212 21.5337 10.6724C21.2263 9.22366 20.5928 7.86397 19.6813 6.69658C18.7699 5.52918 17.6045 4.58477 16.2736 3.93502C14.9427 3.28527 13.4812 2.94726 12.0002 2.94666ZM15.0002 14.9467H9.00017C8.80126 14.9467 8.6105 14.8676 8.46984 14.727C8.32919 14.5863 8.25017 14.3956 8.25017 14.1967C8.25017 13.9977 8.32919 13.807 8.46984 13.6663C8.6105 13.5257 8.80126 13.4467 9.00017 13.4467H15.0002C15.1991 13.4467 15.3899 13.5257 15.5305 13.6663C15.6712 13.807 15.7502 13.9977 15.7502 14.1967C15.7502 14.3956 15.6712 14.5863 15.5305 14.727C15.3899 14.8676 15.1991 14.9467 15.0002 14.9467ZM15.0002 11.9467H9.00017C8.80126 11.9467 8.6105 11.8676 8.46984 11.727C8.32919 11.5863 8.25017 11.3956 8.25017 11.1967C8.25017 10.9977 8.32919 10.807 8.46984 10.6663C8.6105 10.5257 8.80126 10.4467 9.00017 10.4467H15.0002C15.1991 10.4467 15.3899 10.5257 15.5305 10.6663C15.6712 10.807 15.7502 10.9977 15.7502 11.1967C15.7502 11.3956 15.6712 11.5863 15.5305 11.727C15.3899 11.8676 15.1991 11.9467 15.0002 11.9467Z" fill="#344054"/>
</svg>
