<svg width="20" height="22" viewBox="0 0 20 22" fill="none" xmlns="http://www.w3.org/2000/svg">
<mask id="mask0_349_624" style="mask-type:luminance" maskUnits="userSpaceOnUse" x="0" y="0" width="20" height="22">
<path d="M0.5 0.0858154H19.3276V21.0858H0.5V0.0858154Z" fill="white"/>
</mask>
<g mask="url(#mask0_349_624)">
<path d="M19.3248 7.74867V9.55147C19.3248 10.3798 18.6549 11.054 17.8308 11.054C17.0067 11.054 16.3363 10.3798 16.3363 9.55147V8.23755C16.3359 8.22294 16.3279 8.21021 16.3279 8.19559C16.3279 4.5518 13.4459 1.58784 9.90302 1.58784C6.44168 1.58784 3.61867 4.41886 3.48997 7.94667V9.85225C3.48997 10.8461 4.29472 11.6551 5.28334 11.6551C5.61335 11.6551 5.88113 11.9242 5.88113 12.2561C5.88113 12.588 5.61335 12.8568 5.28334 12.8568C4.02411 12.8568 2.94969 12.0671 2.5103 10.9564C2.34907 11.0162 2.17746 11.054 1.99596 11.054C1.17188 11.054 0.501953 10.3798 0.501953 9.55147V7.74867C0.501953 6.91987 1.17188 6.24617 1.99596 6.24617C2.07233 6.24617 2.14588 6.25749 2.21895 6.2688C3.06708 2.7259 6.18568 0.0858154 9.90302 0.0858154C13.6213 0.0858154 16.7404 2.72637 17.5876 6.27069C17.6672 6.25749 17.7474 6.24617 17.8308 6.24617C18.6549 6.24617 19.3248 6.92034 19.3248 7.74867ZM14.8301 8.19559C14.8301 5.45933 12.6242 3.24119 9.90302 3.24119C7.18184 3.24119 4.97596 5.45933 4.97596 8.19559C4.97596 10.9319 7.18184 13.15 9.90302 13.15C12.6242 13.15 14.8301 10.9319 14.8301 8.19559ZM14.8079 14.6525H13.0537C12.6633 14.6525 12.2975 14.8444 12.0735 15.1664L10.8473 16.9315C10.3679 17.6216 9.34907 17.615 8.87857 16.9183L7.70467 15.1791C7.48215 14.8496 7.1116 14.6525 6.71558 14.6525H4.99293C2.77431 14.6525 0.975754 16.461 0.975754 18.6918V20.4847C0.975754 20.8166 1.24353 21.0853 1.57355 21.0853H18.2273C18.5573 21.0853 18.8251 20.8162 18.8251 20.4847V18.6918C18.8246 16.461 17.0265 14.6525 14.8079 14.6525Z" fill="#344054"/>
</g>
</svg>
