<svg width="24" height="25" viewBox="0 0 24 25" fill="none" xmlns="http://www.w3.org/2000/svg">
<path d="M18.75 3.69666H15.3506C14.9292 3.22484 14.4129 2.84734 13.8355 2.58887C13.2581 2.3304 12.6326 2.19679 12 2.19679C11.3674 2.19679 10.7419 2.3304 10.1645 2.58887C9.58709 2.84734 9.07079 3.22484 8.64937 3.69666H5.25C4.85218 3.69666 4.47064 3.85469 4.18934 4.136C3.90804 4.4173 3.75 4.79883 3.75 5.19666V20.9467C3.75 21.3445 3.90804 21.726 4.18934 22.0073C4.47064 22.2886 4.85218 22.4467 5.25 22.4467H18.75C19.1478 22.4467 19.5294 22.2886 19.8107 22.0073C20.092 21.726 20.25 21.3445 20.25 20.9467V5.19666C20.25 4.79883 20.092 4.4173 19.8107 4.136C19.5294 3.85469 19.1478 3.69666 18.75 3.69666ZM12 3.69666C12.7956 3.69666 13.5587 4.01273 14.1213 4.57534C14.6839 5.13795 15 5.90101 15 6.69666H9C9 5.90101 9.31607 5.13795 9.87868 4.57534C10.4413 4.01273 11.2044 3.69666 12 3.69666ZM15 15.6967H9C8.80109 15.6967 8.61032 15.6176 8.46967 15.477C8.32902 15.3363 8.25 15.1456 8.25 14.9467C8.25 14.7477 8.32902 14.557 8.46967 14.4163C8.61032 14.2757 8.80109 14.1967 9 14.1967H15C15.1989 14.1967 15.3897 14.2757 15.5303 14.4163C15.671 14.557 15.75 14.7477 15.75 14.9467C15.75 15.1456 15.671 15.3363 15.5303 15.477C15.3897 15.6176 15.1989 15.6967 15 15.6967ZM15 12.6967H9C8.80109 12.6967 8.61032 12.6176 8.46967 12.477C8.32902 12.3363 8.25 12.1456 8.25 11.9467C8.25 11.7477 8.32902 11.557 8.46967 11.4163C8.61032 11.2757 8.80109 11.1967 9 11.1967H15C15.1989 11.1967 15.3897 11.2757 15.5303 11.4163C15.671 11.557 15.75 11.7477 15.75 11.9467C15.75 12.1456 15.671 12.3363 15.5303 12.477C15.3897 12.6176 15.1989 12.6967 15 12.6967Z" fill="#344054"/>
</svg>
