<svg width="22" height="23" viewBox="0 0 22 23" fill="none" xmlns="http://www.w3.org/2000/svg">
<mask id="mask0_349_1048" style="mask-type:luminance" maskUnits="userSpaceOnUse" x="0" y="0" width="22" height="23">
<path d="M0 0.674927H22V22.6036H0V0.674927Z" fill="white"/>
</mask>
<g mask="url(#mask0_349_1048)">
<path d="M20.753 10.7039C21.865 10.7039 22.3815 9.45439 21.5505 8.78752L17.5019 5.54939L11.8507 1.02994C11.3995 0.663848 10.7198 0.663848 10.2677 1.02994L5.17249 5.09822V1.94604H2.3735V7.34205L0.567958 8.78752C-0.262198 9.45439 0.254286 10.7039 1.36632 10.7039V22.5616H20.759V12.9211H20.753V10.7039ZM16.6323 15.6685C16.6323 15.9298 16.3968 16.1455 16.1089 16.1455H13.8462C13.5583 16.1455 13.3228 16.3552 13.3228 16.6233V18.6832C13.3228 18.9453 13.0873 19.161 12.7994 19.161H9.31983C9.03194 19.161 8.79647 18.9453 8.79647 18.6832V16.6233C8.79647 16.3552 8.561 16.1455 8.27311 16.1455H6.01038C5.72249 16.1455 5.48702 15.9298 5.48702 15.6685V12.5026C5.48702 12.2405 5.72249 12.0248 6.01038 12.0248H8.27311C8.561 12.0248 8.79647 11.8091 8.79647 11.5478V9.48705C8.79647 9.2258 9.03194 9.0101 9.31983 9.0101H12.7994C13.0873 9.0101 13.3228 9.2258 13.3228 9.48705V11.5478C13.3228 11.8091 13.5583 12.0248 13.8462 12.0248H16.1089C16.3968 12.0248 16.6323 12.2405 16.6323 12.5026V15.6685Z" fill="#344054"/>
</g>
</svg>
