<svg width="25" height="25" viewBox="0 0 25 25" fill="none" xmlns="http://www.w3.org/2000/svg">
<path d="M17.75 8.483V7.96082C17.75 5.60957 14.2034 3.83582 9.5 3.83582C4.79656 3.83582 1.25 5.60957 1.25 7.96082V11.7108C1.25 13.6693 3.71094 15.2255 7.25 15.6914V16.2108C7.25 18.5621 10.7966 20.3358 15.5 20.3358C20.2034 20.3358 23.75 18.5621 23.75 16.2108V12.4608C23.75 10.5202 21.3669 8.96207 17.75 8.483ZM5.75 13.8549C3.91344 13.3421 2.75 12.4974 2.75 11.7108V10.3918C3.515 10.9336 4.53969 11.3705 5.75 11.6639V13.8549ZM13.25 11.6639C14.4603 11.3705 15.485 10.9336 16.25 10.3918V11.7108C16.25 12.4974 15.0866 13.3421 13.25 13.8549V11.6639ZM11.75 18.3549C9.91344 17.8421 8.75 16.9974 8.75 16.2108V15.8199C8.99656 15.8293 9.24594 15.8358 9.5 15.8358C9.86375 15.8358 10.2191 15.8236 10.5678 15.803C10.9552 15.9417 11.3499 16.0594 11.75 16.1555V18.3549ZM11.75 14.1718C11.0051 14.2818 10.253 14.3366 9.5 14.3358C8.74698 14.3366 7.99493 14.2818 7.25 14.1718V11.9414C7.99604 12.0386 8.74765 12.0869 9.5 12.0858C10.2523 12.0869 11.004 12.0386 11.75 11.9414V14.1718ZM17.75 18.6718C16.258 18.8905 14.742 18.8905 13.25 18.6718V16.4358C13.9958 16.5361 14.7475 16.5862 15.5 16.5858C16.2523 16.5869 17.004 16.5387 17.75 16.4414V18.6718ZM22.25 16.2108C22.25 16.9974 21.0866 17.8421 19.25 18.3549V16.1639C20.4603 15.8705 21.485 15.4336 22.25 14.8918V16.2108Z" fill="#344054"/>
</svg>
