<svg width="25" height="25" viewBox="0 0 25 25" fill="none" xmlns="http://www.w3.org/2000/svg">
<path d="M22.25 9.83582V14.3358C22.25 14.7336 22.092 15.1152 21.8107 15.3965C21.5294 15.6778 21.1478 15.8358 20.75 15.8358H16.25V20.3358C16.25 20.7336 16.092 21.1152 15.8107 21.3965C15.5294 21.6778 15.1478 21.8358 14.75 21.8358H10.25C9.85218 21.8358 9.47064 21.6778 9.18934 21.3965C8.90804 21.1152 8.75 20.7336 8.75 20.3358V15.8358H4.25C3.85218 15.8358 3.47064 15.6778 3.18934 15.3965C2.90804 15.1152 2.75 14.7336 2.75 14.3358V9.83582C2.75 9.43799 2.90804 9.05646 3.18934 8.77516C3.47064 8.49385 3.85218 8.33582 4.25 8.33582H8.75V3.83582C8.75 3.43799 8.90804 3.05646 9.18934 2.77516C9.47064 2.49385 9.85218 2.33582 10.25 2.33582H14.75C15.1478 2.33582 15.5294 2.49385 15.8107 2.77516C16.092 3.05646 16.25 3.43799 16.25 3.83582V8.33582H20.75C21.1478 8.33582 21.5294 8.49385 21.8107 8.77516C22.092 9.05646 22.25 9.43799 22.25 9.83582Z" fill="#344054"/>
</svg>
