<svg width="220" height="36" viewBox="0 0 220 36" fill="none" xmlns="http://www.w3.org/2000/svg">
<g clip-path="url(#clip0_249_9779)">
<path d="M46.6982 12.1692H51.4633L54.2491 22.6524H54.3957L57.0348 12.1692H61.9465L64.5856 22.6524H64.7322L67.518 12.1692H72.283L67.1514 28.0039H62.6063L59.5273 16.861L56.4483 28.0772H51.8299L46.6982 12.1692Z" fill="white"/>
<path d="M84.965 13.8553C86.3579 15.1749 87.091 16.9343 87.091 19.1336C87.091 19.8666 87.0177 20.5997 86.7978 21.4061H75.948C76.0947 23.6787 78.1473 24.7783 80.7131 24.7783C82.6192 24.7783 84.7451 24.0453 86.138 22.9456V26.831C84.6718 27.784 82.5458 28.3705 80.3466 28.3705C74.5552 28.3705 71.3296 24.6317 71.3296 20.0866C71.3296 15.9813 74.1886 11.876 79.4669 11.876C81.7395 11.876 83.5722 12.5358 84.965 13.8553ZM82.7658 18.5471C83.059 16.7877 81.8861 15.1749 79.6868 15.1749C77.7075 15.1749 76.2413 16.4944 76.0947 18.5471H82.7658Z" fill="white"/>
<path d="M88.1913 28.0772V12.1692C88.1913 10.5564 88.0446 8.65035 87.8247 6.01123H92.9563V23.1655C92.9563 24.705 93.1029 26.7576 93.3229 28.0772H88.1913Z" fill="white"/>
<path d="M95.0819 28.0772V12.1692C95.0819 10.5564 94.9353 8.65035 94.7153 6.01123H99.847V23.1655C99.847 24.705 99.9936 26.7576 100.213 28.0772H95.0819Z" fill="white"/>
<path d="M110.696 25.6579C109.45 27.5639 107.837 28.3703 105.858 28.3703C102.926 28.3703 100.873 26.5376 100.873 23.8985C100.873 21.2593 102.999 19.7932 107.251 19.0601C109.743 18.6935 110.77 18.1071 110.77 16.9341C110.77 15.8345 109.89 15.1747 108.277 15.1747C106.225 15.1747 104.025 16.2743 102.046 18.0337V14.0018C103.805 12.6822 106.298 11.8025 108.79 11.8025C112.896 11.8025 115.535 14.0751 115.535 17.6672V23.0921C115.535 24.9981 115.755 26.7575 116.048 28.0038H111.356L111.063 25.6579H110.696ZM110.916 20.0864C110.183 20.8928 109.304 21.3326 107.911 21.6992C106.298 22.0657 105.565 22.6522 105.565 23.5319C105.565 24.4849 106.371 25.1447 107.617 25.1447C109.377 25.1447 110.916 23.7518 110.916 21.4793V20.0864Z" fill="white"/>
<path d="M122.426 25.2916V28.0041C122.426 28.7372 122.426 29.5436 122.573 30.5699C122.646 31.5962 122.719 32.4026 122.866 32.9891H117.734V16.8611C117.734 15.6149 117.588 13.7088 117.368 12.096H122.499V14.8085H122.866C123.819 12.8291 125.872 11.7295 128.144 11.7295C131.883 11.7295 134.888 14.8818 134.888 20.0134C134.888 25.0717 131.956 28.2973 128.144 28.2973C125.798 28.2973 123.819 27.1977 122.866 25.2183H122.426V25.2916ZM122.279 20.16C122.279 22.8724 123.892 24.6319 126.311 24.6319C128.657 24.6319 130.05 23.0191 130.05 20.16C130.05 17.301 128.657 15.6149 126.311 15.6149C123.819 15.6149 122.279 17.4476 122.279 20.16Z" fill="white"/>
<path d="M144.639 25.6579C143.393 27.5639 141.78 28.3703 139.8 28.3703C136.868 28.3703 134.815 26.5376 134.815 23.8985C134.815 21.2593 136.941 19.7932 141.193 19.0601C143.686 18.6935 144.712 18.1071 144.712 16.9341C144.712 15.8345 143.832 15.1747 142.22 15.1747C140.167 15.1747 137.968 16.2743 135.988 18.0337V14.0018C137.748 12.6822 140.24 11.8025 142.733 11.8025C146.838 11.8025 149.477 14.0751 149.477 17.6672V23.0921C149.477 24.9981 149.697 26.7575 149.99 28.0038H145.299L145.005 25.6579H144.639ZM144.785 20.0864C144.052 20.8928 143.173 21.3326 141.78 21.6992C140.167 22.0657 139.434 22.6522 139.434 23.5319C139.434 24.4849 140.24 25.1447 141.487 25.1447C143.246 25.1447 144.785 23.7518 144.785 21.4793V20.0864Z" fill="white"/>
<path d="M151.603 28.0776V17.008C151.603 15.6884 151.456 14.0023 151.236 12.2429H155.855V15.9083H156.221C156.808 13.3425 158.567 12.0229 160.693 12.0229C161.426 12.0229 162.233 12.1696 162.892 12.5361V17.2279C161.939 16.6414 160.986 16.3482 160.107 16.3482C157.834 16.3482 156.441 17.961 156.441 20.82V23.2392C156.441 24.9253 156.515 26.3915 156.808 28.1509H151.603V28.0776Z" fill="white"/>
<path d="M174.329 27.4172C173.229 28.077 171.983 28.4435 170.59 28.4435C167.218 28.4435 165.019 26.3175 165.019 22.9453V15.8344H162.379V12.7554H163.186C165.605 12.7554 166.631 11.3625 166.925 7.62378H169.637V12.2422H174.109V15.8344H169.637V22.3589C169.637 23.8984 170.37 24.6314 171.69 24.6314C172.496 24.6314 173.302 24.2649 174.182 23.5318V27.4172H174.329Z" fill="white"/>
<path d="M179.534 12.169V14.8082H179.9C180.633 13.1954 182.393 11.8025 184.958 11.8025C186.645 11.8025 188.037 12.3157 189.137 13.4153C190.237 14.5149 190.75 15.9811 190.75 17.7405V23.0921C190.75 24.8515 190.896 26.7575 191.116 28.0038H186.058V18.8401C186.058 16.8608 184.958 15.7612 183.126 15.7612C181.293 15.7612 179.973 17.0074 179.973 19.0601V28.0771H175.208V17.0074C175.208 16.421 175.208 15.6879 175.062 14.7348C174.988 13.7818 174.915 12.9754 174.842 12.2423H179.534V12.169Z" fill="white"/>
<path d="M205.558 13.8553C206.951 15.1749 207.684 16.9343 207.684 19.1336C207.684 19.8666 207.611 20.5997 207.391 21.4061H196.541C196.688 23.6787 198.741 24.7783 201.306 24.7783C203.212 24.7783 205.338 24.0453 206.731 22.9456V26.831C205.265 27.784 203.139 28.3705 200.94 28.3705C195.148 28.3705 191.923 24.6317 191.923 20.0866C191.923 15.9813 194.782 11.876 200.06 11.876C202.333 11.876 204.165 12.5358 205.558 13.8553ZM203.359 18.5471C203.652 16.7877 202.479 15.1749 200.28 15.1749C198.301 15.1749 196.835 16.4944 196.688 18.5471H203.359Z" fill="white"/>
<path d="M208.784 28.0774V17.0077C208.784 15.6882 208.637 14.002 208.417 12.2426H213.036V15.9081H213.402C213.989 13.3423 215.748 12.0227 217.874 12.0227C218.607 12.0227 219.341 12.1693 220.074 12.5359V17.2276C219.121 16.6412 218.168 16.3479 217.288 16.3479C215.015 16.3479 213.622 17.9607 213.622 20.8198V23.239C213.622 24.9251 213.696 26.3913 213.989 28.1507H208.784V28.0774Z" fill="white"/>
<path fill-rule="evenodd" clip-rule="evenodd" d="M27.2709 31.3029C33.4289 27.051 37.021 21.2596 37.021 15.1016V0H0V15.0283C0 21.2596 3.51883 26.9777 9.75008 31.2296L18.5472 35.8481L27.2709 31.3029Z" fill="white"/>
<path fill-rule="evenodd" clip-rule="evenodd" d="M30.35 28.8835C32.0361 27.3441 33.429 25.658 34.4553 23.8985C34.2354 23.6053 34.0154 23.2388 33.7955 22.9455C32.9891 21.8459 32.1827 20.9662 31.3763 20.0865L30.9365 19.6466L31.0831 19.5C31.8162 18.8402 32.6226 18.1071 33.209 17.1541C33.7955 16.2011 34.1621 14.9549 34.1621 13.3421V13.1954C34.0154 11.6559 33.5756 10.4097 32.9158 9.31006C32.1827 8.13712 31.1564 7.33072 29.9834 6.74425C29.4703 6.52433 28.9571 6.3044 28.3706 6.23109C27.7842 6.08447 27.271 6.08447 26.6845 6.08447C26.0981 6.08447 25.5116 6.15778 24.9984 6.3044C24.4853 6.45102 23.8988 6.59764 23.459 6.81756C22.286 7.40403 21.333 8.21043 20.5266 9.31006C19.8668 10.3364 19.427 11.5826 19.3537 13.0488C19.2803 14.515 19.5736 15.7612 20.1601 16.7876C20.5999 17.5207 21.1131 18.1804 21.6262 18.7669C19.427 20.8929 17.4476 20.3797 15.6149 18.8402C16.0548 18.3271 16.5679 17.6673 17.0078 16.8609C17.5942 15.7612 18.0341 14.3684 17.8875 12.8289C17.7409 11.3627 17.301 10.1165 16.5679 9.09014C15.7615 7.9905 14.7352 7.18411 13.5623 6.67094C13.0491 6.45102 12.5359 6.3044 11.9495 6.23109C11.4363 6.15778 10.8498 6.08447 10.2634 6.08447C9.67688 6.08447 9.16372 6.15778 8.57725 6.3044C8.06409 6.45102 7.55092 6.59764 7.03776 6.81756C5.86482 7.40403 4.83849 8.21043 4.1054 9.38337C3.51893 10.483 3.07908 11.7293 3.07908 13.1954C3.00577 14.8815 3.44562 16.1278 4.0321 17.2274C4.61857 18.1804 5.42496 18.9868 6.15805 19.6466L5.64489 20.1598C4.69188 21.1861 3.59224 22.2857 2.56592 23.9718C3.66555 25.7313 5.05842 27.4174 6.81783 28.9569C6.81783 28.8835 6.89114 28.7369 6.89114 28.6636C7.331 27.4174 7.99078 26.2444 8.72387 25.2914C9.45695 24.3384 10.2634 23.6053 11.0697 23.0188L11.8028 23.532C16.0548 26.5377 20.5266 26.4643 24.8518 23.532C25.1451 23.3121 25.4383 23.1654 25.6582 23.0188C25.7315 22.9455 25.8781 22.8722 25.9515 22.8722C26.9045 23.6053 27.7842 24.4117 28.444 25.3647C29.2504 26.391 29.8368 27.4907 30.2034 28.6636L30.35 28.8835ZM26.5379 16.7143C26.0248 16.1278 25.5116 15.468 25.0718 14.8815C24.6319 14.2218 24.3387 13.6353 24.3387 13.1221C24.3387 12.609 24.4853 12.2424 24.7052 11.9492C24.9251 11.5826 25.2917 11.3627 25.6582 11.2161C25.8048 11.1428 26.0248 11.0695 26.1714 11.0695C26.3913 11.0695 26.5379 10.9962 26.7579 10.9962C26.9045 10.9962 27.1244 10.9962 27.3443 11.0695C27.5643 11.1428 27.7109 11.1428 27.8575 11.2161C28.224 11.3627 28.5173 11.5826 28.7372 11.8759C28.9571 12.1691 29.0304 12.4623 29.0304 12.9022C29.0304 13.3421 28.9571 13.7819 28.7372 14.2218C28.5173 14.6616 28.2973 15.1015 27.9308 15.5413C27.6376 15.8346 27.3443 16.1278 26.9778 16.421C26.9045 16.5676 26.7579 16.641 26.5379 16.7143ZM10.5566 16.641C10.3367 16.4943 10.1167 16.3477 9.97012 16.1278C9.60357 15.8346 9.31034 15.5413 9.0171 15.1748C8.72387 14.8815 8.50394 14.5883 8.35732 14.2951C8.2107 14.0751 8.13739 13.9285 8.13739 13.7819C8.06409 13.1954 8.13739 12.7556 8.28401 12.389C8.43063 12.0225 8.72387 11.7293 9.09041 11.5093C9.31034 11.3627 9.53026 11.2894 9.75019 11.2161C10.0434 11.1428 10.2634 11.1428 10.5566 11.1428C10.8498 11.1428 11.0697 11.1428 11.363 11.2161C11.5829 11.2894 11.8028 11.3627 12.0228 11.5093C12.316 11.6559 12.6092 11.9492 12.7559 12.3157C12.9025 12.6823 12.9758 13.1221 12.9025 13.7086C12.9025 13.9285 12.7559 14.1485 12.6092 14.3684C12.3893 14.7349 12.0961 15.1015 11.8028 15.468C11.5096 15.8346 11.2164 16.1278 10.9231 16.421L10.5566 16.641Z" fill="#344054"/>
</g>
<defs>
<clipPath id="clip0_249_9779">
<rect width="220" height="35.8481" fill="white"/>
</clipPath>
</defs>
</svg>
