<svg width="24" height="25" viewBox="0 0 24 25" fill="none" xmlns="http://www.w3.org/2000/svg">
<path d="M20.9832 11.401L5.25003 2.39916C5.02067 2.26541 4.75992 2.19493 4.49441 2.19493C4.2289 2.19493 3.96815 2.26541 3.73878 2.39916C3.51281 2.52873 3.32532 2.71602 3.19552 2.94187C3.06571 3.16771 2.99825 3.42399 3.00003 3.68447V21.7088C2.99929 21.9691 3.06764 22.2248 3.19809 22.45C3.32854 22.6751 3.51642 22.8616 3.74253 22.9904C3.9719 23.1242 4.23265 23.1946 4.49816 23.1946C4.76367 23.1946 5.02442 23.1242 5.25378 22.9904L20.9832 13.9904C21.2155 13.8631 21.4093 13.6756 21.5443 13.4477C21.6792 13.2197 21.7505 12.9597 21.7505 12.6948C21.7505 12.4299 21.6792 12.1698 21.5443 11.9419C21.4093 11.7139 21.2155 11.5265 20.9832 11.3992V11.401ZM13.5 13.757L15.2738 15.5307L6.97691 20.2801L13.5 13.757ZM6.97503 5.11228L15.2747 9.86259L13.5 11.6363L6.97503 5.11228ZM16.6228 14.7592L14.5603 12.6967L16.6228 10.6342L20.2257 12.6967L16.6228 14.7592Z" fill="#344054"/>
</svg>
