<svg width="25" height="25" viewBox="0 0 25 25" fill="none" xmlns="http://www.w3.org/2000/svg">
<mask id="mask0_349_590" style="mask-type:luminance" maskUnits="userSpaceOnUse" x="13" y="0" width="2" height="4">
<path d="M13.6743 0.389893H14.5886V3.37204H13.6743V0.389893Z" fill="white"/>
</mask>
<g mask="url(#mask0_349_590)">
<path d="M14.0935 3.31387C14.3221 3.31387 14.5078 3.12867 14.5078 2.89959V0.805199C14.5078 0.575097 14.3221 0.389893 14.0935 0.389893C13.8639 0.389893 13.6787 0.575097 13.6787 0.805199V2.89959C13.6787 3.12867 13.8639 3.31387 14.0935 3.31387Z" fill="#344054"/>
</g>
<path d="M8.48079 4.28935C8.56192 4.40006 8.68743 4.45925 8.81549 4.45925C8.90018 4.45925 8.98641 4.43272 9.06038 4.37863C9.24508 4.24343 9.28487 3.98374 9.14916 3.79955L7.90936 2.11027C7.77416 1.92608 7.51498 1.88527 7.32977 2.02098C7.14508 2.15618 7.10579 2.41588 7.241 2.60057L8.48079 4.28935Z" fill="#344054"/>
<path d="M19.0373 3.79959C18.9015 3.98377 18.9408 4.24347 19.126 4.37867C19.2 4.43275 19.2857 4.45928 19.3709 4.45928C19.4985 4.45928 19.6245 4.40061 19.7056 4.28939L20.9454 2.60061C21.0811 2.41592 21.0413 2.15622 20.8567 2.02102C20.6709 1.88479 20.4118 1.92612 20.2771 2.1103" fill="#344054"/>
<path d="M8.77396 8.11083C8.776 8.11236 8.77805 8.11389 8.7806 8.11644L11.078 10.0557C11.1321 10.1011 11.1755 10.1557 11.2235 10.2073C11.2576 10.2226 11.2923 10.2363 11.3219 10.2613C11.4923 10.4047 11.7107 10.4715 11.9342 10.4547C12.1581 10.4353 12.3612 10.3312 12.5046 10.1613C12.6597 10.0047 12.727 9.82103 12.7189 9.61797C12.7087 9.3746 12.5913 9.13532 12.4051 8.97868L11.2408 7.99552C11.2393 7.99501 11.2388 7.99501 11.2383 7.99399L9.56019 6.57613C9.20662 6.27766 8.676 6.32307 8.37651 6.67766C8.07805 7.03072 8.12345 7.56185 8.47702 7.86083L8.77396 8.11083Z" fill="#344054"/>
<mask id="mask1_349_590" style="mask-type:luminance" maskUnits="userSpaceOnUse" x="0" y="5" width="21" height="20">
<path d="M0.5 5.8537H20.5969V24.7818H0.5V5.8537Z" fill="white"/>
</mask>
<g mask="url(#mask1_349_590)">
<path d="M13.1282 8.54043C13.3777 8.83073 13.5302 9.19604 13.5466 9.58277C13.5649 10.021 13.4114 10.4251 13.1139 10.721C12.8517 11.0348 12.4486 11.243 12.0032 11.2807C11.9552 11.2843 11.9063 11.2869 11.8588 11.2869C11.7991 11.2869 11.7404 11.2777 11.6813 11.2716C11.6818 11.2787 11.6843 11.2853 11.6848 11.2925C11.7037 11.7297 11.5512 12.1348 11.2547 12.4323C10.943 12.8017 10.4879 12.9935 10.0251 12.9981C10.0945 13.4568 9.98126 13.9414 9.65983 14.3236C9.42717 14.5981 9.1236 14.7736 8.79911 14.8562C8.90268 15.0532 8.9685 15.27 8.98738 15.4986C9.02462 15.944 8.88738 16.3756 8.60013 16.7144C8.31493 17.0532 7.91238 17.2608 7.46748 17.2981C7.41901 17.3022 7.37054 17.3047 7.32309 17.3047C6.93023 17.3047 6.55421 17.1675 6.25064 16.9129L4.95982 15.8251L0.53125 19.7746L5.09503 24.7818L11.168 18.9573C11.2649 18.8726 11.3966 18.8374 11.5205 18.8644C12.3711 19.0338 13.0874 19.1506 13.7608 19.1032C13.7675 19.1027 13.7736 19.1017 13.7807 19.1017C14.545 19.0445 15.2532 18.7746 16.0333 18.1165L20.2308 14.3129C20.2308 14.3129 20.7915 13.7991 20.3879 13.3435C20.1721 13.0991 19.9093 12.9216 19.6195 12.8292C20.0609 12.2226 20.0512 11.369 19.5461 10.7715C19.3297 10.5144 19.0461 10.3323 18.7287 10.243C19.0808 9.64961 19.0384 8.87155 18.569 8.31338C18.3098 8.00624 17.9552 7.80777 17.5609 7.744C17.7364 7.21083 17.6899 6.55471 17.2537 6.14298C16.8129 5.72767 16.1109 6.14859 16.1109 6.14859L13.1282 8.54043Z" fill="#344054"/>
</g>
<mask id="mask2_349_590" style="mask-type:luminance" maskUnits="userSpaceOnUse" x="14" y="15" width="11" height="10">
<path d="M14.7197 15.6496H24.5003V24.7817H14.7197V15.6496Z" fill="white"/>
</mask>
<g mask="url(#mask2_349_590)">
<path d="M16.5787 18.7409C15.943 19.2782 15.3389 19.5996 14.7349 19.772L20.4435 24.7659L24.468 19.7782L19.916 15.718L16.5787 18.7409Z" fill="#344054"/>
</g>
<path d="M11.4308 6.10063C11.2298 6.40165 11.1757 6.85471 11.4701 7.10267C11.4706 7.10369 11.4711 7.10471 11.4716 7.10522L12.5053 7.97767L14.214 6.60777L12.6329 5.87002C11.9288 5.50522 11.5579 5.90981 11.4308 6.10063Z" fill="#344054"/>
<path d="M6.18463 12.4894L6.95963 13.143H6.96014C6.96218 13.1445 6.96269 13.1476 6.96422 13.1491L7.84331 13.8899C8.1979 14.1868 8.72749 14.1409 9.02596 13.7884C9.32341 13.4353 9.27851 12.9042 8.92443 12.6052L7.27137 11.2083C7.27035 11.2073 7.26882 11.2073 7.26678 11.2067L7.26524 11.2042C7.09484 11.0613 6.87647 10.9945 6.65453 11.0124C6.43055 11.0307 6.22749 11.1353 6.08361 11.3057C5.78565 11.6593 5.83106 12.1899 6.18463 12.4894Z" fill="#344054"/>
<path d="M7.06118 8.84857C6.91781 9.01898 6.84893 9.23632 6.86781 9.46183C6.88669 9.68581 6.99128 9.88837 7.16118 10.0312L7.79332 10.5649C7.79536 10.5664 7.79689 10.5664 7.79791 10.568L9.46016 11.972C9.81271 12.269 10.3454 12.2246 10.6449 11.871C10.7989 11.7154 10.8658 11.5307 10.8571 11.3277C10.8464 11.0843 10.7295 10.846 10.5433 10.6894L8.24638 8.74959H8.24587L8.2423 8.74653C7.8872 8.4501 7.35965 8.49602 7.06118 8.84857Z" fill="#344054"/>
<path d="M5.343 15.0618L6.78586 16.2782C6.95678 16.4215 7.17107 16.4894 7.39811 16.4715C7.62209 16.4527 7.82413 16.3481 7.96749 16.1792C8.11188 16.0073 8.18076 15.7909 8.16188 15.5664C8.143 15.3419 8.03892 15.1394 7.86902 14.9955L7.31035 14.5256C7.30984 14.5246 7.30882 14.5246 7.30831 14.5241C7.3078 14.5231 7.3078 14.5231 7.30729 14.5226L6.41392 13.7695C6.06137 13.4812 5.5379 13.5282 5.24198 13.8782C4.94402 14.2312 4.98892 14.7618 5.343 15.0618Z" fill="#344054"/>
</svg>
