<svg width="24" height="25" viewBox="0 0 24 25" fill="none" xmlns="http://www.w3.org/2000/svg">
<path d="M20.3438 3.95916C20.1428 3.82114 19.9111 3.73437 19.669 3.70643C19.4268 3.67849 19.1815 3.71021 18.9544 3.79884C17.6391 4.31072 14.9831 5.16947 12 5.16947C9.01688 5.16947 6.36 4.31072 5.04281 3.79884C4.81555 3.71062 4.5702 3.67912 4.32803 3.70707C4.08585 3.73502 3.85413 3.82158 3.65293 3.95925C3.45174 4.09692 3.28713 4.28155 3.17336 4.49716C3.05959 4.71278 3.00009 4.95287 3 5.19666V10.4251C3 13.7851 3.90469 16.9548 5.54813 19.3482C7.25063 21.8288 9.54187 23.192 12 23.192C14.4581 23.192 16.7494 21.826 18.4519 19.3482C20.0953 16.9567 21 13.787 21 10.427V5.19666C20.9996 4.95256 20.9396 4.71225 20.8252 4.4966C20.7108 4.28095 20.5456 4.09646 20.3438 3.95916ZM7.3125 13.1963C7.17985 13.3455 6.99337 13.4359 6.79408 13.4476C6.5948 13.4593 6.39903 13.3913 6.24984 13.2587C6.10066 13.126 6.01028 12.9396 5.99859 12.7403C5.9869 12.541 6.05485 12.3452 6.1875 12.196C6.72656 11.5979 7.70438 11.1967 8.625 11.1967C9.54562 11.1967 10.5234 11.5979 11.0625 12.196C11.1951 12.3452 11.2631 12.541 11.2514 12.7403C11.2397 12.9396 11.1493 13.126 11.0002 13.2587C10.9263 13.3244 10.8402 13.3749 10.7468 13.4073C10.6534 13.4397 10.5546 13.4534 10.4559 13.4476C10.2566 13.4359 10.0701 13.3455 9.9375 13.1963C9.68625 12.9151 9.10781 12.6967 8.625 12.6967C8.14219 12.6967 7.56 12.916 7.3125 13.1963ZM15.7959 17.6832C15.3304 18.2356 14.7498 18.6796 14.0948 18.9842C13.4398 19.2887 12.7261 19.4465 12.0037 19.4465C11.2814 19.4465 10.5677 19.2887 9.9127 18.9842C9.25767 18.6796 8.67709 18.2356 8.21156 17.6832C8.14052 17.6097 8.08528 17.5224 8.04922 17.4267C8.01316 17.331 7.99706 17.2289 8.00189 17.1268C8.00672 17.0246 8.03239 16.9245 8.07732 16.8327C8.12225 16.7408 8.18549 16.6591 8.26315 16.5926C8.34081 16.5261 8.43126 16.4761 8.52893 16.4459C8.62661 16.4156 8.72944 16.4056 8.83112 16.4165C8.93279 16.4274 9.03116 16.459 9.12018 16.5093C9.20919 16.5597 9.28698 16.6277 9.34875 16.7092C9.67336 17.0967 10.079 17.4084 10.537 17.6222C10.9951 17.836 11.4945 17.9469 12 17.9469C12.5055 17.9469 13.0049 17.836 13.463 17.6222C13.921 17.4084 14.3266 17.0967 14.6512 16.7092C14.7804 16.5579 14.9644 16.4641 15.1627 16.4484C15.361 16.4328 15.5575 16.4966 15.7087 16.6257C15.86 16.7549 15.9538 16.9389 15.9695 17.1372C15.9851 17.3355 15.9214 17.5319 15.7922 17.6832H15.7959ZM17.7506 13.2592C17.6772 13.3249 17.5916 13.3755 17.4986 13.4081C17.4056 13.4407 17.3071 13.4546 17.2087 13.4491C17.1103 13.4436 17.014 13.4188 16.9252 13.3761C16.8364 13.3334 16.7569 13.2736 16.6912 13.2001C16.44 12.9188 15.8616 12.7004 15.3787 12.7004C14.8959 12.7004 14.3137 12.9198 14.0662 13.2001C14.0003 13.2742 13.9204 13.3346 13.8312 13.3779C13.7419 13.4211 13.645 13.4463 13.546 13.4521C13.4469 13.4579 13.3477 13.4441 13.254 13.4116C13.1603 13.379 13.074 13.3284 12.9998 13.2624C12.9257 13.1965 12.8653 13.1166 12.8221 13.0274C12.7788 12.9381 12.7536 12.8412 12.7478 12.7421C12.742 12.6431 12.7558 12.5439 12.7883 12.4502C12.8209 12.3565 12.8716 12.2701 12.9375 12.196C13.4728 11.5979 14.4506 11.1967 15.375 11.1967C16.2994 11.1967 17.2734 11.5979 17.8125 12.196C17.8786 12.2697 17.9295 12.3558 17.9622 12.4492C17.9949 12.5427 18.0088 12.6416 18.003 12.7405C17.9972 12.8393 17.972 12.936 17.9287 13.0251C17.8854 13.1141 17.8248 13.1936 17.7506 13.2592Z" fill="#344054"/>
</svg>
