<svg width="24" height="25" viewBox="0 0 24 25" fill="none" xmlns="http://www.w3.org/2000/svg">
<path d="M12 11.9249H9V7.42493H12C12.5967 7.42493 13.169 7.66198 13.591 8.08394C14.0129 8.50589 14.25 9.07819 14.25 9.67493C14.25 10.2717 14.0129 10.844 13.591 11.2659C13.169 11.6879 12.5967 11.9249 12 11.9249ZM21 5.17493V20.1749C21 20.5728 20.842 20.9543 20.5607 21.2356C20.2794 21.5169 19.8978 21.6749 19.5 21.6749H4.5C4.10218 21.6749 3.72064 21.5169 3.43934 21.2356C3.15804 20.9543 3 20.5728 3 20.1749V5.17493C3 4.7771 3.15804 4.39557 3.43934 4.11427C3.72064 3.83296 4.10218 3.67493 4.5 3.67493H19.5C19.8978 3.67493 20.2794 3.83296 20.5607 4.11427C20.842 4.39557 21 4.7771 21 5.17493ZM17.7806 18.1443L16.4353 16.7999L17.7806 15.4556C17.9214 15.3148 18.0004 15.124 18.0004 14.9249C18.0004 14.7259 17.9214 14.535 17.7806 14.3943C17.6399 14.2536 17.449 14.1745 17.25 14.1745C17.051 14.1745 16.8601 14.2536 16.7194 14.3943L15.375 15.7396L12.9375 13.3021C13.8179 13.0711 14.5843 12.5277 15.0936 11.7734C15.603 11.019 15.8206 10.1051 15.7058 9.20215C15.5911 8.29918 15.1518 7.46877 14.47 6.86578C13.7881 6.26279 12.9102 5.92838 12 5.92493H8.25C8.05109 5.92493 7.86032 6.00394 7.71967 6.1446C7.57902 6.28525 7.5 6.47601 7.5 6.67493V17.1749C7.5 17.3738 7.57902 17.5646 7.71967 17.7053C7.86032 17.8459 8.05109 17.9249 8.25 17.9249C8.44891 17.9249 8.63968 17.8459 8.78033 17.7053C8.92098 17.5646 9 17.3738 9 17.1749V13.4249H10.9397L14.3147 16.7999L12.9694 18.1443C12.8286 18.285 12.7496 18.4759 12.7496 18.6749C12.7496 18.874 12.8286 19.0648 12.9694 19.2056C13.1101 19.3463 13.301 19.4253 13.5 19.4253C13.699 19.4253 13.8899 19.3463 14.0306 19.2056L15.375 17.8602L16.7194 19.2056C16.7891 19.2752 16.8718 19.3305 16.9628 19.3682C17.0539 19.4059 17.1515 19.4253 17.25 19.4253C17.3485 19.4253 17.4461 19.4059 17.5372 19.3682C17.6282 19.3305 17.7109 19.2752 17.7806 19.2056C17.8503 19.1359 17.9056 19.0531 17.9433 18.9621C17.981 18.8711 18.0004 18.7735 18.0004 18.6749C18.0004 18.5764 17.981 18.4788 17.9433 18.3878C17.9056 18.2967 17.8503 18.214 17.7806 18.1443Z" fill="#344054"/>
</svg>
